<mxfile host="app.diagrams.net" agent="Mozilla/5.0 (Windows NT 10.0; Win64; x64) AppleWebKit/537.36 (KHTML, like Gecko) Chrome/138.0.0.0 Safari/537.36" version="27.2.0">
  <diagram name="ページ1" id="Z2ty-pVkt-m8mSbLIuMP">
    <mxGraphModel dx="578" dy="288" grid="1" gridSize="10" guides="1" tooltips="1" connect="1" arrows="1" fold="1" page="1" pageScale="1" pageWidth="1654" pageHeight="1169" math="0" shadow="0">
      <root>
        <mxCell id="0" />
        <mxCell id="1" parent="0" />
        <mxCell id="begWAy1SFnhg3p4s2BHO-8" style="edgeStyle=none;shape=connector;rounded=0;orthogonalLoop=1;jettySize=auto;html=1;exitX=1.001;exitY=0.526;exitDx=0;exitDy=0;exitPerimeter=0;entryX=0;entryY=0.5;entryDx=0;entryDy=0;strokeColor=default;align=center;verticalAlign=middle;fontFamily=Helvetica;fontSize=11;fontColor=default;labelBackgroundColor=default;endArrow=classic;" parent="1" source="begWAy1SFnhg3p4s2BHO-1" target="begWAy1SFnhg3p4s2BHO-3" edge="1">
          <mxGeometry relative="1" as="geometry" />
        </mxCell>
        <mxCell id="begWAy1SFnhg3p4s2BHO-1" value="" style="sketch=0;pointerEvents=1;shadow=0;dashed=0;html=1;strokeColor=none;labelPosition=center;verticalLabelPosition=bottom;verticalAlign=top;align=center;fillColor=#505050;shape=mxgraph.mscae.intune.user_group" parent="1" vertex="1">
          <mxGeometry x="80" y="80" width="50" height="37" as="geometry" />
        </mxCell>
        <mxCell id="begWAy1SFnhg3p4s2BHO-2" value="BE/FE&lt;div&gt;Enginner&lt;/div&gt;" style="text;html=1;align=center;verticalAlign=middle;resizable=0;points=[];autosize=1;strokeColor=none;fillColor=none;fontSize=10;" parent="1" vertex="1">
          <mxGeometry x="75" y="121.5" width="60" height="40" as="geometry" />
        </mxCell>
        <mxCell id="begWAy1SFnhg3p4s2BHO-7" style="rounded=0;orthogonalLoop=1;jettySize=auto;html=1;exitX=1;exitY=0.5;exitDx=0;exitDy=0;entryX=0;entryY=0.5;entryDx=0;entryDy=0;" parent="1" source="begWAy1SFnhg3p4s2BHO-3" target="begWAy1SFnhg3p4s2BHO-5" edge="1">
          <mxGeometry relative="1" as="geometry" />
        </mxCell>
        <mxCell id="begWAy1SFnhg3p4s2BHO-3" value="" style="shape=image;html=1;verticalAlign=top;verticalLabelPosition=bottom;labelBackgroundColor=#ffffff;imageAspect=0;aspect=fixed;image=https://cdn0.iconfinder.com/data/icons/phosphor-regular-vol-3/256/git-branch-128.png" parent="1" vertex="1">
          <mxGeometry x="169.25" y="78.25" width="41.5" height="41.5" as="geometry" />
        </mxCell>
        <mxCell id="begWAy1SFnhg3p4s2BHO-4" value="Feature&lt;div&gt;Branch&lt;/div&gt;" style="text;html=1;align=center;verticalAlign=middle;resizable=0;points=[];autosize=1;strokeColor=none;fillColor=none;fontSize=10;" parent="1" vertex="1">
          <mxGeometry x="160" y="117" width="60" height="40" as="geometry" />
        </mxCell>
        <mxCell id="begWAy1SFnhg3p4s2BHO-10" style="edgeStyle=none;shape=connector;rounded=0;orthogonalLoop=1;jettySize=auto;html=1;entryX=0;entryY=0.5;entryDx=0;entryDy=0;strokeColor=default;align=center;verticalAlign=middle;fontFamily=Helvetica;fontSize=11;fontColor=default;labelBackgroundColor=default;endArrow=classic;" parent="1" source="begWAy1SFnhg3p4s2BHO-5" target="begWAy1SFnhg3p4s2BHO-9" edge="1">
          <mxGeometry relative="1" as="geometry" />
        </mxCell>
        <mxCell id="begWAy1SFnhg3p4s2BHO-5" value="" style="shape=image;html=1;verticalAlign=top;verticalLabelPosition=bottom;labelBackgroundColor=#ffffff;imageAspect=0;aspect=fixed;image=https://cdn0.iconfinder.com/data/icons/octicons/1024/git-pull-request-128.png" parent="1" vertex="1">
          <mxGeometry x="251" y="80" width="38" height="38" as="geometry" />
        </mxCell>
        <mxCell id="begWAy1SFnhg3p4s2BHO-6" value="PR" style="text;html=1;align=center;verticalAlign=middle;resizable=0;points=[];autosize=1;strokeColor=none;fillColor=none;fontSize=10;" parent="1" vertex="1">
          <mxGeometry x="250" y="122" width="40" height="30" as="geometry" />
        </mxCell>
        <mxCell id="begWAy1SFnhg3p4s2BHO-21" style="edgeStyle=none;shape=connector;rounded=0;orthogonalLoop=1;jettySize=auto;html=1;exitX=1;exitY=0.5;exitDx=0;exitDy=0;strokeColor=default;align=center;verticalAlign=middle;fontFamily=Helvetica;fontSize=11;fontColor=default;labelBackgroundColor=default;endArrow=classic;" parent="1" source="begWAy1SFnhg3p4s2BHO-9" target="begWAy1SFnhg3p4s2BHO-19" edge="1">
          <mxGeometry relative="1" as="geometry" />
        </mxCell>
        <mxCell id="begWAy1SFnhg3p4s2BHO-9" value="" style="shape=image;html=1;verticalAlign=top;verticalLabelPosition=bottom;labelBackgroundColor=#ffffff;imageAspect=0;aspect=fixed;image=https://cdn4.iconfinder.com/data/icons/ionicons/512/icon-social-github-128.png;fontFamily=Helvetica;fontSize=11;fontColor=default;" parent="1" vertex="1">
          <mxGeometry x="330" y="75" width="48" height="48" as="geometry" />
        </mxCell>
        <mxCell id="begWAy1SFnhg3p4s2BHO-13" style="edgeStyle=none;shape=connector;rounded=0;orthogonalLoop=1;jettySize=auto;html=1;strokeColor=default;align=center;verticalAlign=middle;fontFamily=Helvetica;fontSize=10;fontColor=default;labelBackgroundColor=default;endArrow=classic;" parent="1" source="begWAy1SFnhg3p4s2BHO-11" target="begWAy1SFnhg3p4s2BHO-12" edge="1">
          <mxGeometry relative="1" as="geometry" />
        </mxCell>
        <mxCell id="begWAy1SFnhg3p4s2BHO-28" value="Build&lt;div&gt;Test&lt;/div&gt;&lt;div&gt;Deploy&lt;/div&gt;" style="edgeLabel;html=1;align=center;verticalAlign=middle;resizable=0;points=[];fontFamily=Helvetica;fontSize=11;fontColor=default;labelBackgroundColor=default;" parent="begWAy1SFnhg3p4s2BHO-13" vertex="1" connectable="0">
          <mxGeometry x="-0.2079" relative="1" as="geometry">
            <mxPoint as="offset" />
          </mxGeometry>
        </mxCell>
        <mxCell id="begWAy1SFnhg3p4s2BHO-11" value="DEV" style="text;html=1;align=center;verticalAlign=middle;resizable=0;points=[];autosize=1;strokeColor=none;fillColor=none;fontSize=10;" parent="1" vertex="1">
          <mxGeometry x="334" y="121.5" width="40" height="30" as="geometry" />
        </mxCell>
        <mxCell id="begWAy1SFnhg3p4s2BHO-12" value="DEV ENV" style="rounded=1;whiteSpace=wrap;html=1;fontFamily=Helvetica;fontSize=10;fontColor=default;labelBackgroundColor=default;" parent="1" vertex="1">
          <mxGeometry x="324" y="240" width="60" height="60" as="geometry" />
        </mxCell>
        <mxCell id="begWAy1SFnhg3p4s2BHO-17" style="edgeStyle=none;shape=connector;rounded=0;orthogonalLoop=1;jettySize=auto;html=1;strokeColor=default;align=center;verticalAlign=middle;fontFamily=Helvetica;fontSize=10;fontColor=default;labelBackgroundColor=default;endArrow=classic;dashed=1;" parent="1" source="begWAy1SFnhg3p4s2BHO-14" target="begWAy1SFnhg3p4s2BHO-2" edge="1">
          <mxGeometry relative="1" as="geometry" />
        </mxCell>
        <mxCell id="begWAy1SFnhg3p4s2BHO-18" value="Feedback" style="edgeLabel;html=1;align=center;verticalAlign=middle;resizable=0;points=[];fontFamily=Helvetica;fontSize=10;fontColor=default;labelBackgroundColor=default;" parent="begWAy1SFnhg3p4s2BHO-17" vertex="1" connectable="0">
          <mxGeometry x="-0.2934" y="-1" relative="1" as="geometry">
            <mxPoint x="-1" y="-8" as="offset" />
          </mxGeometry>
        </mxCell>
        <mxCell id="begWAy1SFnhg3p4s2BHO-14" value="" style="sketch=0;pointerEvents=1;shadow=0;dashed=0;html=1;strokeColor=none;labelPosition=center;verticalLabelPosition=bottom;verticalAlign=top;align=center;fillColor=#505050;shape=mxgraph.mscae.intune.user_group;fontSize=10;" parent="1" vertex="1">
          <mxGeometry x="80" y="251.5" width="50" height="37" as="geometry" />
        </mxCell>
        <mxCell id="begWAy1SFnhg3p4s2BHO-15" value="QA&lt;div&gt;Team&lt;/div&gt;" style="text;html=1;align=center;verticalAlign=middle;resizable=0;points=[];autosize=1;strokeColor=none;fillColor=none;fontSize=10;" parent="1" vertex="1">
          <mxGeometry x="80" y="287.5" width="50" height="40" as="geometry" />
        </mxCell>
        <mxCell id="begWAy1SFnhg3p4s2BHO-16" style="edgeStyle=none;shape=connector;rounded=0;orthogonalLoop=1;jettySize=auto;html=1;exitX=1.018;exitY=0.499;exitDx=0;exitDy=0;exitPerimeter=0;entryX=0;entryY=0.5;entryDx=0;entryDy=0;strokeColor=default;align=center;verticalAlign=middle;fontFamily=Helvetica;fontSize=10;fontColor=default;labelBackgroundColor=default;endArrow=classic;" parent="1" source="begWAy1SFnhg3p4s2BHO-14" target="begWAy1SFnhg3p4s2BHO-12" edge="1">
          <mxGeometry relative="1" as="geometry">
            <mxPoint x="160" y="180" as="sourcePoint" />
            <mxPoint x="199" y="180" as="targetPoint" />
          </mxGeometry>
        </mxCell>
        <mxCell id="begWAy1SFnhg3p4s2BHO-24" style="edgeStyle=none;shape=connector;rounded=0;orthogonalLoop=1;jettySize=auto;html=1;entryX=0;entryY=0.5;entryDx=0;entryDy=0;strokeColor=default;align=center;verticalAlign=middle;fontFamily=Helvetica;fontSize=11;fontColor=default;labelBackgroundColor=default;endArrow=classic;" parent="1" source="begWAy1SFnhg3p4s2BHO-19" target="begWAy1SFnhg3p4s2BHO-22" edge="1">
          <mxGeometry relative="1" as="geometry" />
        </mxCell>
        <mxCell id="begWAy1SFnhg3p4s2BHO-19" value="" style="shape=image;html=1;verticalAlign=top;verticalLabelPosition=bottom;labelBackgroundColor=#ffffff;imageAspect=0;aspect=fixed;image=https://cdn0.iconfinder.com/data/icons/octicons/1024/git-pull-request-128.png" parent="1" vertex="1">
          <mxGeometry x="414" y="79.5" width="38" height="38" as="geometry" />
        </mxCell>
        <mxCell id="begWAy1SFnhg3p4s2BHO-20" value="PR" style="text;html=1;align=center;verticalAlign=middle;resizable=0;points=[];autosize=1;strokeColor=none;fillColor=none;fontSize=10;" parent="1" vertex="1">
          <mxGeometry x="413" y="121.5" width="40" height="30" as="geometry" />
        </mxCell>
        <mxCell id="begWAy1SFnhg3p4s2BHO-22" value="" style="shape=image;html=1;verticalAlign=top;verticalLabelPosition=bottom;labelBackgroundColor=#ffffff;imageAspect=0;aspect=fixed;image=https://cdn4.iconfinder.com/data/icons/ionicons/512/icon-social-github-128.png;fontFamily=Helvetica;fontSize=11;fontColor=default;" parent="1" vertex="1">
          <mxGeometry x="481" y="74.25" width="48" height="48" as="geometry" />
        </mxCell>
        <mxCell id="begWAy1SFnhg3p4s2BHO-23" value="Stg" style="text;html=1;align=center;verticalAlign=middle;resizable=0;points=[];autosize=1;strokeColor=none;fillColor=none;fontSize=10;" parent="1" vertex="1">
          <mxGeometry x="485" y="120.75" width="40" height="30" as="geometry" />
        </mxCell>
        <mxCell id="begWAy1SFnhg3p4s2BHO-25" style="edgeStyle=none;shape=connector;rounded=0;orthogonalLoop=1;jettySize=auto;html=1;strokeColor=default;align=center;verticalAlign=middle;fontFamily=Helvetica;fontSize=10;fontColor=default;labelBackgroundColor=default;endArrow=classic;" parent="1" target="begWAy1SFnhg3p4s2BHO-26" edge="1">
          <mxGeometry relative="1" as="geometry">
            <mxPoint x="505" y="152" as="sourcePoint" />
          </mxGeometry>
        </mxCell>
        <mxCell id="begWAy1SFnhg3p4s2BHO-26" value="STG ENV" style="rounded=1;whiteSpace=wrap;html=1;fontFamily=Helvetica;fontSize=10;fontColor=default;labelBackgroundColor=default;" parent="1" vertex="1">
          <mxGeometry x="475" y="380" width="60" height="60" as="geometry" />
        </mxCell>
        <mxCell id="begWAy1SFnhg3p4s2BHO-29" value="Build&lt;div&gt;Test&lt;/div&gt;&lt;div&gt;Deploy&lt;/div&gt;" style="edgeLabel;html=1;align=center;verticalAlign=middle;resizable=0;points=[];fontFamily=Helvetica;fontSize=11;fontColor=default;labelBackgroundColor=default;" parent="1" vertex="1" connectable="0">
          <mxGeometry x="505" y="190" as="geometry" />
        </mxCell>
        <mxCell id="begWAy1SFnhg3p4s2BHO-30" value="" style="sketch=0;pointerEvents=1;shadow=0;dashed=0;html=1;strokeColor=none;labelPosition=center;verticalLabelPosition=bottom;verticalAlign=top;align=center;fillColor=#505050;shape=mxgraph.mscae.intune.user_group;fontSize=10;" parent="1" vertex="1">
          <mxGeometry x="80" y="390" width="50" height="37" as="geometry" />
        </mxCell>
        <mxCell id="begWAy1SFnhg3p4s2BHO-31" value="Makita&lt;div&gt;UAT&lt;/div&gt;" style="text;html=1;align=center;verticalAlign=middle;resizable=0;points=[];autosize=1;strokeColor=none;fillColor=none;fontSize=10;" parent="1" vertex="1">
          <mxGeometry x="80" y="426" width="50" height="40" as="geometry" />
        </mxCell>
        <mxCell id="begWAy1SFnhg3p4s2BHO-32" style="edgeStyle=none;shape=connector;rounded=0;orthogonalLoop=1;jettySize=auto;html=1;exitX=1.075;exitY=0.573;exitDx=0;exitDy=0;exitPerimeter=0;entryX=0;entryY=0.5;entryDx=0;entryDy=0;strokeColor=default;align=center;verticalAlign=middle;fontFamily=Helvetica;fontSize=10;fontColor=default;labelBackgroundColor=default;endArrow=classic;" parent="1" source="begWAy1SFnhg3p4s2BHO-30" target="begWAy1SFnhg3p4s2BHO-26" edge="1">
          <mxGeometry relative="1" as="geometry">
            <mxPoint x="230" y="408.15999999999997" as="sourcePoint" />
            <mxPoint x="423" y="408.15999999999997" as="targetPoint" />
          </mxGeometry>
        </mxCell>
        <mxCell id="p0lnJMwvflav0Itmh_Jj-3" style="edgeStyle=none;shape=connector;rounded=0;orthogonalLoop=1;jettySize=auto;html=1;strokeColor=default;align=center;verticalAlign=middle;fontFamily=Helvetica;fontSize=10;fontColor=default;labelBackgroundColor=default;endArrow=classic;dashed=1;exitX=0.5;exitY=0;exitDx=0;exitDy=0;exitPerimeter=0;" edge="1" parent="1" source="begWAy1SFnhg3p4s2BHO-30">
          <mxGeometry relative="1" as="geometry">
            <mxPoint x="104.76" y="410" as="sourcePoint" />
            <mxPoint x="104.76" y="320" as="targetPoint" />
          </mxGeometry>
        </mxCell>
        <mxCell id="p0lnJMwvflav0Itmh_Jj-4" value="Feedback" style="edgeLabel;html=1;align=center;verticalAlign=middle;resizable=0;points=[];fontFamily=Helvetica;fontSize=10;fontColor=default;labelBackgroundColor=default;" vertex="1" connectable="0" parent="p0lnJMwvflav0Itmh_Jj-3">
          <mxGeometry x="-0.2934" y="-1" relative="1" as="geometry">
            <mxPoint x="-1" y="-8" as="offset" />
          </mxGeometry>
        </mxCell>
      </root>
    </mxGraphModel>
  </diagram>
</mxfile>
